<svg xmlns="http://www.w3.org/2000/svg" xmlns:xlink="http://www.w3.org/1999/xlink" viewBox="0 0 2500 2323.89"><defs><style>.cls-1{fill:none;}.cls-2{isolation:isolate;}.cls-11,.cls-3{fill:#89f5e5;}.cls-14,.cls-3,.cls-45{opacity:0.5;}.cls-4{clip-path:url(#clip-path);}.cls-5{fill:#ededed;}.cls-6{fill:#fcfaeb;}.cls-14,.cls-46,.cls-7{fill:#d3d3d3;}.cls-8{fill:#ba6a8f;}.cls-12,.cls-15,.cls-21,.cls-22,.cls-48,.cls-9{fill:#fff;}.cls-10{fill:#caffe9;}.cls-10,.cls-12,.cls-52{opacity:0.36;}.cls-11{opacity:0.3;}.cls-13{fill:#c4c4c4;}.cls-14,.cls-16,.cls-17,.cls-19,.cls-27,.cls-39,.cls-40,.cls-45,.cls-49,.cls-53{mix-blend-mode:multiply;}.cls-15,.cls-27{opacity:0.4;}.cls-16{fill:#ffc35a;}.cls-17{fill:#5ea3aa;}.cls-18{fill:#353f63;}.cls-19,.cls-51{fill:#ce427c;}.cls-20{fill:#232630;}.cls-21,.cls-53{opacity:0.71;}.cls-22{opacity:0.29;}.cls-23{fill:#1caebf;}.cls-24,.cls-27{fill:#f0a28f;}.cls-25{fill:#030368;}.cls-26{fill:#ffceb0;}.cls-28{fill:#ffd6bd;}.cls-29{fill:#f0937d;}.cls-30{fill:#f5f5f5;}.cls-31{fill:#d4d4d4;}.cls-32{fill:#f9452d;}.cls-33{fill:#d63b27;}.cls-34{fill:#5555a5;}.cls-35{fill:#f4f4f4;}.cls-36,.cls-39{fill:#36caf7;}.cls-37{fill:#88e1fc;}.cls-38{fill:#d4f3fc;}.cls-40{fill:#ffe83e;opacity:0.8;}.cls-41{fill:#20cde0;}.cls-42{fill:#d93c27;}.cls-43{fill:#f97361;}.cls-44{fill:#53d2e0;}.cls-46,.cls-48{opacity:0.61;}.cls-47{fill:#53acbc;}.cls-49{fill:#78cfff;opacity:0.32;}.cls-50{fill:#455277;opacity:0.38;}.cls-51{opacity:0.51;}.cls-52{fill:#7a261e;}.cls-53{fill:#fff57d;}</style><clipPath id="clip-path" transform="translate(0 609.64)"><rect class="cls-1" x="1131.55" width="1368.45" height="1600"/></clipPath></defs><g class="cls-2"><g id="Layer_1" data-name="Layer 1"><rect class="cls-3" x="450" y="-450" width="1600" height="2500" transform="translate(2050 159.64) rotate(90)"/><g class="cls-4"><rect class="cls-5" x="1277.27" y="-609.64" width="1192.3" height="2323.89" transform="translate(3746.84 1714.24) rotate(180)"/><rect class="cls-6" x="1341.06" y="191.32" width="1071.78" height="341.73" transform="translate(3753.91 1334.02) rotate(180)"/><rect class="cls-7" x="1359.27" y="206.48" width="1037.36" height="306.98" transform="translate(3755.91 1329.6) rotate(180)"/><path class="cls-8" d="M2271,326.74V299h34.44v27.7h2a24.3,24.3,0,0,1,24.31,24.31V513.13h-85.09V351.05A24.3,24.3,0,0,1,2271,326.74Z" transform="translate(0 609.64)"/><rect class="cls-6" x="2261.57" y="281.48" width="54.03" height="23.64" transform="translate(4577.16 1196.25) rotate(180)"/><path class="cls-9" d="M2101.84,376.71V349.36h63.83v27.35h1a52.68,52.68,0,0,1,52.68,52.67v83.75H2049.17V429.38a52.67,52.67,0,0,1,52.67-52.67Z" transform="translate(0 609.64)"/><rect class="cls-6" x="2088.68" y="329.1" width="90.5" height="31.4" transform="translate(4267.85 1299.24) rotate(180)"/><rect class="cls-6" x="1930.64" y="253.12" width="100.29" height="260.01" transform="translate(3961.58 1375.89) rotate(180)"/><rect class="cls-9" x="1921.53" y="234.88" width="120.58" height="33.43" transform="translate(3963.63 1112.84) rotate(180)"/><rect class="cls-6" x="1437.03" y="354.76" width="422.7" height="155.33" transform="translate(3296.76 1474.49) rotate(180)"/><rect class="cls-9" x="1399.82" y="299.38" width="482.88" height="63.1" transform="translate(3282.51 1271.51) rotate(180)"/><rect class="cls-10" x="1430.88" y="256.49" width="435.6" height="43.43" transform="translate(3297.37 1166.05) rotate(180)"/><rect class="cls-6" x="1341.06" y="582.71" width="1071.78" height="363.65" transform="translate(3753.91 2138.72) rotate(180)"/><rect class="cls-7" x="1359.27" y="597.58" width="1037.36" height="328.34" transform="translate(3755.91 2133.15) rotate(180)"/><rect class="cls-9" x="2219.36" y="672.44" width="96.24" height="253.49" transform="translate(4534.95 2208.01) rotate(180)"/><rect class="cls-8" x="2205.17" y="651.58" width="126.63" height="40.52" transform="translate(4536.98 1953.32) rotate(180)"/><path class="cls-8" d="M2093.74,743.76V702.23h60.78v41.53h3A32.43,32.43,0,0,1,2190,776.18V925.93H2061.32V776.18a32.43,32.43,0,0,1,32.42-32.42Z" transform="translate(0 609.64)"/><rect class="cls-9" x="2083.61" y="672.44" width="81.04" height="43.97" transform="translate(4248.26 1998.49) rotate(180)"/><rect class="cls-11" x="1359.27" y="-504.53" width="1037.36" height="627.38" transform="translate(3755.91 227.97) rotate(180)"/><polygon class="cls-12" points="2179.17 96.89 2025.06 743.58 1905.03 745.24 2070.44 95.97 2179.17 96.89"/><polygon class="cls-12" points="2004.93 96.89 1829.34 743.58 1760.45 743.58 1944.2 95.75 2004.93 96.89"/><polygon class="cls-12" points="1822.59 96.89 1621.33 743.58 1452.49 743.58 1672.66 96.89 1822.59 96.89"/><path class="cls-12" d="M1524.08-512.75S1355.92,10.71,1352.2,8.49s-1.65-522.17-1.65-522.17Z" transform="translate(0 609.64)"/><polygon class="cls-12" points="2407.78 102.37 2407.78 745.91 2271.02 745.91 2407.78 102.37"/><polygon class="cls-12" points="2366.92 96.89 2211.59 743.58 2107.59 743.58 2271.02 96.89 2366.92 96.89"/><rect class="cls-7" x="2060.31" y="-512.75" width="20.26" height="649.01" transform="translate(4140.88 233.16) rotate(180)"/><rect class="cls-7" x="1703.72" y="-513.68" width="20.26" height="649.01" transform="translate(3427.71 231.3) rotate(180)"/><rect class="cls-7" x="1341.06" y="122.85" width="1071.78" height="22.18" transform="translate(3753.91 877.52) rotate(180)"/><rect class="cls-7" x="1341.06" y="-518.36" width="1077.86" height="22.18" transform="translate(3759.98 -404.9) rotate(180)"/><rect class="cls-7" x="2396.64" y="-518.36" width="22.29" height="663.39" transform="translate(4815.56 236.31) rotate(180)"/><rect class="cls-7" x="1341.06" y="-518.37" width="22.29" height="663.39" transform="translate(2704.41 236.29) rotate(180)"/><rect class="cls-7" x="1983.32" y="1018.76" width="413.32" height="610.38" transform="translate(4379.96 3257.56) rotate(180)"/><rect class="cls-7" x="1359.27" y="1013.3" width="543.01" height="615.85" transform="translate(3261.55 3252.1) rotate(180)"/><rect class="cls-6" x="2327.75" y="1173.17" width="28.36" height="274.12" transform="translate(4683.86 3230.11) rotate(180)"/><rect class="cls-6" x="1805.03" y="1173.23" width="28.36" height="274.12" transform="translate(3638.42 3230.22) rotate(180)"/><rect class="cls-13" x="2469.54" y="609.64" width="30.46" height="1600"/></g><path class="cls-14" d="M2145.75,1370.14a79.06,79.06,0,0,0-8.57-23l-.15-.28a176.64,176.64,0,0,0-10.71-18.59,69,69,0,0,0-4.88-6.39c-22.4-33.69-59.73-84.54-94.37-130.76l.2-.28.74-1.07.58-.86.66-1,.51-.81c.2-.32.39-.64.57-.95s.31-.51.45-.76l.49-.89.37-.7c.14-.28.27-.56.4-.83l.3-.64c.11-.27.21-.53.31-.79s.15-.38.21-.57a7.67,7.67,0,0,0,.22-.74c.05-.16.1-.33.14-.48a6.92,6.92,0,0,0,.12-.73c0-.12,0-.25.05-.37a4.27,4.27,0,0,0,0-1h0a5,5,0,0,0-.13-.7s0-.11,0-.17c-.07-.25-.14-.52-.24-.8,0,0,0-.08,0-.11-.09-.27-.2-.55-.32-.84a1.8,1.8,0,0,0-.08-.21q-.19-.49-.45-1l-.09-.2c-.15-.33-.32-.67-.5-1a2,2,0,0,0-.1-.21c-.2-.4-.42-.82-.65-1.25l-.14-.25c-.22-.41-.46-.84-.71-1.29l-.06-.12L2029,1168l-.16-.28c-.62-1-1.3-2.15-2-3.32l-.18-.28c-.38-.6-.76-1.2-1.17-1.82h0c-.41-.63-.82-1.27-1.25-1.92l-.17-.25c-.44-.66-.88-1.34-1.35-2l-.07-.11-1.41-2.08-.1-.15-1.53-2.22-.16-.23c-.51-.74-1-1.49-1.57-2.25l0,0h0c-38.48-54.88-135.68-171.38-149-187.13-16.58-19.54-87-44.42-103.63-51.32-6.87-2.86-14.74-7.24-22.21-11.52a23.21,23.21,0,0,0-1.49-5.31c-1.16-2.37-4.07-2.16-7.64.06-6.82-3.88-12.63-7-16-7.71-8.29-1.78-19.58,6.74-19.58,6.74l-.16-.06-1-.36-.41-.16-1.06-.39-.17-.06-1.08-.42-.28-.11-.7-.29-.27-.11-.72-.32-.07,0-.63-.3-.14-.08-.35-.2-.11-.08a1.43,1.43,0,0,1-.28-.22,1,1,0,0,1-.15-.24.14.14,0,0,1,0-.06c0-.11-.1-.24-.16-.41l0-.09-.16-.59a.29.29,0,0,0,0-.09c0-.21-.11-.45-.16-.71a.52.52,0,0,1,0-.11q-.09-.42-.18-.9c0-.07,0-.14,0-.21-.06-.33-.12-.67-.18-1a1.57,1.57,0,0,1,0-.23c-.06-.37-.13-.76-.19-1.17l0-.11c-.06-.42-.13-.86-.2-1.32,0-.1,0-.2,0-.3-.07-.45-.13-.93-.2-1.41,0-.13,0-.26-.05-.4-.07-.5-.14-1-.21-1.54,0-.11,0-.22,0-.32-.07-.49-.13-1-.19-1.51,0-.12,0-.24-.05-.37-.07-.56-.14-1.14-.21-1.73,0-.19-.05-.38-.07-.57-.07-.58-.14-1.17-.21-1.78,0-.19-.05-.38-.07-.58-.07-.55-.13-1.12-.2-1.69,0-.2,0-.41-.07-.61-.06-.6-.13-1.2-.2-1.81,0-.22,0-.44-.07-.66-.08-.66-.15-1.33-.22-2l-.09-.79c-.07-.69-.15-1.38-.22-2.08,0-.23,0-.46-.07-.69-.07-.6-.13-1.2-.19-1.8,0-.25,0-.49-.08-.74-1.28-12.33-2.66-27.14-4-42.07,19,.48,29.47-11.51,29.47-11.51-20.45-6.33-15.56-39.94-15.56-39.94,7.42.65,15.56,14.18,15.56,14.18,3.12-15-12-22.91-12-22.91,37.6-41.91,53.85-111.44,50.14-144.7-3.18-28.53-15-48.76-26-61.91.38-.41.75-.82,1.12-1.24s.52-.55.77-.84c.46-.52.92-1.06,1.37-1.59l.64-.73c.51-.61,1-1.23,1.51-1.85l.42-.5c20.45-25.59,26.61-54.61,24.42-59.25-4.25-9-26.77,15.83-80.46-20.93s-96.86-5.76-117.19-15.6,23.69-32.48-10.7-30.37c-24.21,1.49-75.69,32.19-95.77,59.73-18,24.66-20.79,43.94-18.13,57.91,0,0-34.89,13.91-14.38,61.61s8.71,101.68,27.15,136A322.65,322.65,0,0,0,1455,778.61l0,0s-.7,4,1.55,6.6c-1,10.63,1.61,22.22,8.87,34.54a102,102,0,0,0,7.74,11.35c-.67,3.57.07,8.16,7.48,9.54l-3.8-3.85a3.33,3.33,0,0,1-.12-1.43c19.33,21.79,43.52,28.41,60.7,29.84l-3.22,43.06-4.3,1.53-.77-.87c-.51-.54-1-1-1.47-1.45q-.34-.33-.69-.6a12.21,12.21,0,0,0-1.31-1,6.61,6.61,0,0,0-.62-.36,7.42,7.42,0,0,0-1.3-.55,5.87,5.87,0,0,0-1-.22,5.13,5.13,0,0,0-1,0,7.42,7.42,0,0,0-3.69,1.5l-.43.31a45.4,45.4,0,0,1-4.45,3.26,5.85,5.85,0,0,1-2.63.82h0a5.71,5.71,0,0,1-1.59-.18,11.86,11.86,0,0,1-1.63-.58c-1.13-.49-2.34-1.14-3.81-1.74a20.26,20.26,0,0,0-2.4-.85,21.72,21.72,0,0,0-4.56-.8,19.64,19.64,0,0,0-4,.18,47.69,47.69,0,0,0-4.72.93c-.84.21-1.71.44-2.59.69l-1.66.48-2.43.75-1.41.45c-1.89.62-3.82,1.28-5.76,2l-4.36,1.52c-2.9,1-5.77,2-8.48,2.83l-1.34.41c-.88.27-1.75.51-2.59.74s-1.66.43-2.45.61l-1.18.24a20.22,20.22,0,0,1-3.43.27c-10.46-.11-19.18-8.61-31.81-14a18.88,18.88,0,0,0-7.1-1.72,11.91,11.91,0,0,0-4,.55,10,10,0,0,0-1,.37,12.9,12.9,0,0,0-1.78.9,18.77,18.77,0,0,0-3.09,2.44c-2.38,2.29-4.11,4.81-5.92,5.58a3.86,3.86,0,0,1-2.54.11l-.25-.07a9.35,9.35,0,0,1-1.11-.4c-.41-.18-.83-.38-1.27-.6l-1.12-.6-1.19-.65-1.27-.67c-.44-.22-.89-.45-1.36-.67s-1-.43-1.45-.63-1-.39-1.55-.56a20.61,20.61,0,0,0-3.44-.82c-.3,0-.62-.08-.93-.12a21.16,21.16,0,0,0-4.06,0c-11.55,1.11-11.55,15.1-11.55,15.1a13.33,13.33,0,0,0-2.9-1.63,14.4,14.4,0,0,0-3.21-.91c-.41-.07-.83-.11-1.26-.14a12,12,0,0,0-3.47.3,13.94,13.94,0,0,0-5.37,2.6,11.6,11.6,0,0,0-3.5,4.55c-.13.29-.26.59-.37.89a16.88,16.88,0,0,0-.58,1.87,23.23,23.23,0,0,0-.62,3.88c0,.65-.08,1.3-.09,1.94,0,1.28,0,2.52.12,3.67a42.15,42.15,0,0,0,1,6.52,8.48,8.48,0,0,0-3.5-.46l-.12,0a4.14,4.14,0,0,0-.65.14l-.22.08a3.45,3.45,0,0,0-1,.51,3.39,3.39,0,0,0-.34.31,2.39,2.39,0,0,0-.22.23,5.7,5.7,0,0,0-1.11,3.39h0a4.43,4.43,0,0,0,0,.66,11.66,11.66,0,0,0-5.12,1.15,8.34,8.34,0,0,0-1,.59,9.38,9.38,0,0,0-1.36,1.13,10.81,10.81,0,0,0-1.11,1.34c-.17.27-.34.54-.49.81-3.32,5.92-1.43,15-1.43,15l0,.06c-1.53,1-49.25,32.79-64.88,84.53-5.47,18.08-9.09,34.23-12.18,48.66-.56,2.63-1.11,5.19-1.64,7.71s-1.06,5-1.58,7.36-1,4.75-1.57,7q-1.1,4.82-2.25,9.31c-.12.44-.23.89-.35,1.33a134.39,134.39,0,0,1-7.62,22.06l-3-1-1.16-.37-5.68-1.86h0l-1.16-.37-12.52-4.09-1.16-.38-5.69-1.85-1.15-.38-3.82-1.24-2.7-.88-.32-.11-1.3-.42-11.23-3.66-.55-.18-5-1.62c.85-4.77,1.18-8.07.56-8.21-1.63-.36-6.94-1.23-12.32,4.38l-.44-.14h0l2-6a6,6,0,0,0-3.81-7.49h0a5.94,5.94,0,0,0-7.49,3.81l-1.67,5.12a15.89,15.89,0,0,0-1.64,1.89l-16.67-2.38,1.52-4.67a3.28,3.28,0,0,0-6.24-2l-3.31,10.16-3,9.16-.32,1a3.14,3.14,0,0,0-.15.66v.22a3.09,3.09,0,0,0,0,.43,2.38,2.38,0,0,0,0,.26c0,.13,0,.25.07.38s.07.16.1.25.09.23.14.34l.15.24c.07.1.13.2.2.29l.2.21a3,3,0,0,0,.26.25,2.15,2.15,0,0,0,.24.18l.3.19a2.52,2.52,0,0,0,.29.12,1.92,1.92,0,0,0,.25.12l.09,0,.08,0a1.66,1.66,0,0,0,.22,0l.37.06h.18a3.26,3.26,0,0,0,3.2-2.25l.06-.17h0l1.46-4.49,14.52,7.71a49,49,0,0,1-7.84,18.68c-6.23,8.62-27,14.31-38,16.8a116,116,0,0,1-22.1-2.77c1,.11,1.71.13,1.71.13h0c-5.25-1.2-9.34-2.84-10.35-5-3-6.24,7.56-24.72,16.21-28.36l.43-.16c5.25-1.61,11.59-1.85,17.92-4.28a29.64,29.64,0,0,0,12.92-9.14,40.58,40.58,0,0,0,5.22-7.95s-.3.34-.85.93c4.88-9.32,3.77-17.19-5.15-12-11.2,6.44-28.24,9.72-36.79,11.78s-14.51,4.3-19.87,10.66c-2.43,2.89-8.42,7.26-14.52,11.43-3.91,2.67-7.85,5.26-10.94,7.33l-.23.15-.66.45-.36.24c-.18.13-.35.25-.53.36l-.41.29-.43.3-.41.29a3.47,3.47,0,0,0-.37.26l-.38.27-.31.22-.35.26-.23.18-.32.25-.16.13-.36.31a7.47,7.47,0,0,0-.67.8c-3.54,4.71-13.52,24.09-18.23,31.73-.52.85-1,1.56-1.35,2.08a3.3,3.3,0,0,1-.27.3l-.12.11-.26.24-.19.15-.31.24-.25.18-.37.26-.3.2-.42.28-.35.22-.48.3-.39.24-.56.32-.41.25-.63.36-.44.25-.73.4-.42.24-.94.51-.3.16c-.43.24-.87.47-1.33.71l-.22.12-1.18.62-.52.27-.95.49-.62.32-.93.47-.67.34-.94.48-.7.35-1,.49-.72.36-1,.51-.73.35-1.07.53-.74.36-1.1.54-.75.36-1.25.6-.62.3-1.88.9,0,0-2,.94-.54.26-1.45.68-.73.35-1.3.62-.75.35-1.29.61-.77.35-1.35.64-.68.31-1.39.65-.72.34-1.38.64-.7.32-1.44.66-.64.3-1.63.76-.41.18-2,.91-.1,0-2.12,1h0c-15.22,7-29.15,13.13-33.92,15.23-22.55-45-60.54-123.55-73.48-152-6.94-15.25-19.3-35.35-31.92-54.33-14.2-49.41-28.28-61-28.28-61a33.24,33.24,0,0,0-2.91-2.5c-11.79-9.08-17.82-16.84-23.86-18.56-2.11-.61-5.74-1.56-9.58-2.55a74.73,74.73,0,0,0-19.25-27c-.07-2.39-.09-4.74-.08-7h0a209.1,209.1,0,0,1,5-44.2c15.55-.14,47.24-6,66.64-41.25a65.7,65.7,0,0,0,4.08-8.84,35.4,35.4,0,0,0,12.56-15.15l.36.29c8.85,7.21,2.52,17,2.52,17,10.28-10,8.26-18.8,6-26.25,15-2.07,30.15-18.38,33.83-31.21,2.54-8.87,2.24-20.19-1.58-26.89,14-18,22.68-42.58,23.29-73.67,1.65-84.15-59.49-115.9-59.49-115.9-6.26-29.52-44.59-44.17-84.82-49.15s-91.31,13-125.67,43.42c-11.61,10.29-23.91,25.52-33.5,45.11-.06.11-.11.22-.16.33-.46.94-.92,1.9-1.37,2.87l0,.09c-.95,2.05-1.87,4.15-2.75,6.28l-.13.33q-.58,1.41-1.14,2.85l-.18.46q-1.26,3.25-2.4,6.63v0c-.36,1.07-.72,2.15-1.06,3.24l-.19.61q-.45,1.42-.87,2.88c-.05.19-.11.38-.16.56q-1,3.45-1.87,7c0,.18-.09.37-.13.55-.24,1-.47,2-.69,3l-.18.83c-.21,1-.42,2-.62,3l-.12.61c-.47,2.43-.9,4.9-1.27,7.4,0,.3-.09.61-.13.91-.14,1-.27,1.93-.4,2.9l-.12,1c-.13,1.1-.26,2.19-.37,3.3l-.06.51c-.13,1.29-.24,2.6-.34,3.91l-.06.72c-.07,1-.14,2.11-.2,3.17l-.06,1.16c0,1-.09,2-.13,2.94l0,1.09q-.12,4-.06,8.08c0,.37,0,.75,0,1.12q0,1.5.09,3c0,.43,0,.87,0,1.31,0,1,.1,2.08.16,3.13l.06,1.07c.09,1.4.2,2.81.32,4.22l.06.65c.11,1.2.22,2.4.35,3.61,0,.45.11.9.16,1.36.11,1,.24,2,.37,3l.18,1.41c.16,1.17.34,2.35.52,3.54l.12.84c.23,1.46.48,2.92.75,4.4l.21,1.16c.21,1.11.42,2.22.65,3.33.1.5.2,1,.31,1.51.22,1.06.45,2.13.69,3.2.1.47.2.93.31,1.39.35,1.52.71,3,1.1,4.57s.83,3.18,1.28,4.74c-3.67,2.74-6.07,7.74-6,15.18-24.46,17.71-83.27,69-99.2,162.17H178L155.5,918.53V1358.8H57.58v125.13H128.4V1600h99.25V1483.93H365.86V1600H865.05s-1.86-52.57-4.38-116.07H1128c-13.55,54.67-28.16,116.07-28.16,116.07h100.37l3.92-8.3.87-1.86c.31-.64.62-1.31,1-2l5.16-10.95,2.71-5.77.71-1.52,5.91-12.59c.35-.77.71-1.53,1.08-2.31l2.53-5.41,1.46-3.12c.18-.4.37-.8.56-1.2l3.91-8.38c.4-.87.81-1.73,1.21-2.6l1.86-4c.72-1.55,1.45-3.12,2.19-4.69q1.59-3.43,3.22-6.93l3.52-7.59c.45-1,.89-1.92,1.34-2.89.91-2,1.82-3.92,2.73-5.89.5-1.09,1-2.18,1.51-3.28l1-2.13c.66-1.42,1.31-2.85,2-4.28q1.93-4.18,3.86-8.38h123.13c-.73,11.45-1.46,22.82-2.16,33.71,0,.86-.11,1.71-.16,2.57-.21,3.16-.41,6.29-.61,9.35l-.15,2.33c-.6,9.26-1.18,18-1.7,25.94-.17,2.64-.34,5.2-.5,7.65,0,.65-.09,1.3-.13,1.94-.16,2.32-.3,4.55-.44,6.67-.05.62-.09,1.23-.13,1.83-.14,2.09-.27,4.08-.39,5.94-.1,1.42-.19,2.76-.27,4-.11,1.7-.22,3.26-.31,4.68-.14,2.12-.27,3.92-.36,5.36q0,.72-.09,1.32c-.12,1.79-.19,2.75-.19,2.75h502.76s-.1-2.2-.28-6.1q-.06-1.47-.15-3.24c0-1.18-.11-2.45-.18-3.82-.12-2.73-.27-5.83-.43-9.22-.08-1.69-.17-3.46-.25-5.3-.23-4.59-.47-9.59-.73-14.89-.31-6.3-.65-13-1-19.92-.13-2.44-.25-4.91-.39-7.39-.12-2.3-.24-4.62-.36-6.94l-.21-3.78q-.18-3.48-.38-7c-.07-1.19-.13-2.38-.2-3.57-.4-7.13-.81-14.19-1.22-20.94-.06-1.13-.13-2.25-.2-3.36,0-.21,0-.42,0-.63h26V1390.4h-11.85v-31.6H1855c-.4-4.57-.81-9.17-1.2-13.74q-.35-3.87-.67-7.7c-.72-8.31-1.41-16.45-2.06-24.14-.45-5.32-.88-10.42-1.28-15.21-.09-1.06-.17-2.11-.26-3.14-1.63-19.58-2.73-33.1-2.73-33.1s11,16.21,22.35,31.41l3,4c9,11.82,17.51,22,20.26,22a1.18,1.18,0,0,0,.36-.08l.07,0a4.14,4.14,0,0,0,.51-.23l.11-.05.67-.38.1-.07c.26-.15.53-.32.82-.52l.06,0,1-.67.18-.13c.35-.24.71-.5,1.09-.78l.23-.17,1.23-.92a1.09,1.09,0,0,0,.17-.13c.43-.32.87-.65,1.32-1a1.09,1.09,0,0,0,.17-.13l1.49-1.16.31-.24,1.57-1.25.32-.26,1.73-1.4.19-.16,1.4-1.14c3.87,4.68,7.76,9.37,11.63,14l2,2.36c32.64,39.22,64.19,76.14,83.15,93,48.51,43.26,96.84,46.25,127.36,13.13l0,0c.62-.67,1.22-1.36,1.81-2l.6-.73c.38-.46.77-.93,1.15-1.41l.66-.88c.33-.44.67-.88,1-1.32l.68-1c.29-.43.59-.86.87-1.29s.44-.69.66-1,.53-.85.79-1.29.42-.72.62-1.09.49-.86.72-1.29.4-.76.59-1.14.44-.87.65-1.32l.54-1.17c.2-.45.39-.89.58-1.34l.5-1.22.51-1.36c.15-.42.3-.83.44-1.25s.31-.93.45-1.4.27-.85.39-1.28.26-1,.39-1.44.22-.87.32-1.3.22-1,.32-1.49.19-.87.27-1.32.18-1,.26-1.54.14-.88.2-1.33.13-1.09.19-1.64.1-.86.14-1.29c.06-.63.09-1.27.13-1.9,0-.37,0-.73.06-1.1v0h0A77,77,0,0,0,2145.75,1370.14ZM1135.09,1224.22l.21-.14s12.25-9.61,12.42-19.54c0-.7,0-1.33,0-1.94,0,0-.07.37-.2,1l.16-9s13.2-8.15,18-15a11.72,11.72,0,0,0,1.61-2.85c.81-2.24,2.24-7.42,3.77-13.52,0,0-.13.34-.37.9.35-1.39.71-2.83,1.06-4.3l14.8,4.82.14,0c-6.13,1.35-11.59,3.85-11.74,9.4-.4,6.62,3,10.44,8.82,12.4v32.22a15.24,15.24,0,0,1-.86,5c-1.39,1.25-2.72,2.39-3.94,3.36-4.37,3.46-31.38,7.85-48.83,10.38A33.25,33.25,0,0,0,1135.09,1224.22ZM1148,1358.8a6.53,6.53,0,0,0,2.68-4.94c0-1.48,0-2.95,0-4.44l0,0v-15.37c4.44-1.42,9.09-2.9,13.71-4.33v17.77a14.92,14.92,0,0,0,1.5,6.51c-.13.31-.27.62-.41.93l-.12.27-.51,1.19-.16.37c-.19.45-.38.9-.57,1.37l-.06.14-.21.51Zm-604.72,0v-11.68c1.7,4.84,3.1,8.78,4.13,11.68Zm93.63-493.17c.06-.19.09-.33.11-.38C637,865.38,637,865.51,636.91,865.63Zm-52.24-32.42c0-.59,0-1.18,0-1.76a1.62,1.62,0,0,1,0-.22c0-1.36.15-2.71.28-4.05,0-.07,0-.14,0-.21.06-.58.13-1.16.2-1.74,0-.15,0-.29,0-.44l.21-1.5c0-.17.06-.34.08-.51.08-.48.16-1,.25-1.45,0-.17.05-.33.08-.49.1-.51.19-1,.3-1.52,0-.13,0-.26.07-.39.27-1.28.57-2.55.89-3.8,0-.09.05-.18.07-.27.13-.52.27-1,.42-1.55.05-.19.11-.38.16-.57.12-.41.24-.82.37-1.23.06-.22.13-.45.2-.67l.36-1.1c.07-.24.15-.48.23-.72l.36-1,.26-.75.36-1c.1-.25.19-.51.29-.76s.24-.63.37-1c.22-.56.45-1.11.68-1.66l.24-.6.46-1,.24-.54c.16-.37.33-.73.49-1.09l.21-.45c.18-.38.36-.77.55-1.15l.15-.31c.21-.42.41-.84.62-1.25l0,0q1.28-2.53,2.66-4.89c6.33,4.77,13.32,5.85,20.8,0q3.12,3.15,6.23,6l2.27,2.07c1,.93,2.07,1.82,3.1,2.71,1.78,1.53,3.56,3,5.3,4.41l2.06,1.63q4,3.13,7.81,5.82c-.87,17.86-3.19,35.67-7.46,51.07-12.86,12.08-20.42,24.95-24.17,37.95h0l-.25.08c-.17-.47-.34-.93-.52-1.4s-.29-.76-.44-1.14q-.39-1-.81-2c-.16-.4-.32-.8-.49-1.2-.29-.69-.58-1.38-.88-2.07l-.51-1.17-1.07-2.36-.42-.89c-.51-1.09-1-2.19-1.59-3.29l-.34-.65c-.45-.89-.91-1.78-1.38-2.68l-.63-1.16c-.4-.74-.8-1.49-1.22-2.23-.24-.43-.48-.86-.73-1.29-.41-.73-.83-1.46-1.27-2.19l-.75-1.28c-.48-.79-1-1.58-1.45-2.37l-.69-1.11c-.73-1.16-1.48-2.33-2.26-3.5q-.63-1-1.23-2c-.13-.2-.25-.41-.37-.62-.27-.44-.53-.89-.78-1.33l-.41-.74c-.22-.41-.45-.83-.66-1.24l-.39-.76c-.21-.42-.41-.83-.61-1.25-.12-.25-.24-.49-.35-.73l-.6-1.35-.27-.64c-.24-.58-.48-1.16-.7-1.74l-.09-.24c-.26-.67-.5-1.35-.73-2l-.12-.38c-.18-.54-.36-1.08-.52-1.62-.06-.21-.12-.41-.17-.61-.14-.47-.27-.94-.4-1.42-.06-.21-.11-.43-.17-.65-.11-.47-.23-.93-.33-1.4,0-.21-.1-.42-.14-.63q-.17-.74-.3-1.47c0-.18-.08-.36-.11-.54-.11-.59-.21-1.19-.3-1.78l0-.22q-.32-2.05-.48-4.11l0-.38c0-.55-.08-1.09-.11-1.63l0-.51c0-.51,0-1-.05-1.52,0-.17,0-.35,0-.52,0-.52,0-1,0-1.55C584.66,833.51,584.66,833.36,584.67,833.21ZM482,889.36s-.49,1.87-1.21,5.26h-3.06Zm-16.84,662.25v-67.68H497.4Zm896-192.81c3.08-1.6,5-3.9,5-6.43,0-1.48,0-3,0-4.44h0V1295.2a6.24,6.24,0,0,0-.08-1h0c0-.13,0-.25-.08-.38l-.06-.32c-.05-.18-.11-.35-.17-.53a2,2,0,0,0-.07-.23,6.88,6.88,0,0,0-.32-.74l-.11-.2c-.1-.18-.19-.36-.3-.53l-.19-.28c-.1-.14-.19-.29-.3-.43l-.24-.29c-.11-.14-.21-.27-.33-.4l-.28-.29-.37-.37-.31-.29-.41-.35-.35-.27a4.59,4.59,0,0,0-.44-.33l-.38-.27-.48-.31-.41-.25-.53-.3-.43-.23-.57-.28-.44-.2-.65-.28-.43-.18-.75-.27-.39-.13-1.19-.37c-4.56-1.27-7.46-4-7.46-6.93v-10.8q2.67-4.07,5.62-8.43l1.85-2.74c1.72-1,2.59-2.23,2.47-3.66l1.28-1.89c.8,1,1.68,2,2.55,2.93l1.09,1.16.52.57c.27.29.51.58.75.87a11.92,11.92,0,0,1,1.36,1.92c2.74,5,15.47,44.65,18.61,83.31.07.83.13,1.66.19,2.48q.22,3.11.35,6.19.18,4.3.17,8.54c0,.12,0,.24,0,.36Z" transform="translate(0 609.64)"/><polygon class="cls-15" points="90.71 2001.35 449.96 2001.35 449.96 1578.33 419.86 1556.17 111.58 1556.17 90.71 1578.33 90.71 2001.35"/><path class="cls-16" d="M396.87,1351.72h0a23,23,0,0,0,23-23V1013.89c0-12.69-13-14.07-23-14.09s-23,1.4-23,14.09v314.84A23,23,0,0,0,396.87,1351.72Z" transform="translate(0 609.64)"/><path class="cls-17" d="M138.85,1354.66h0a23,23,0,0,0,23-23V1016.83c0-12.69-9.15-14.53-23-14.53s-23,1.84-23,14.53v314.84A23,23,0,0,0,138.85,1354.66Z" transform="translate(0 609.64)"/><path class="cls-18" d="M330.09,1358.46h0A17.44,17.44,0,0,0,347.53,1341V1123.81a17.44,17.44,0,0,0-17.44-17.44h0a17.44,17.44,0,0,0-17.44,17.44V1341A17.44,17.44,0,0,0,330.09,1358.46Z" transform="translate(0 609.64)"/><path class="cls-19" d="M269,1358.46h0a16.21,16.21,0,0,0,16.21-16.21V1122.58A16.21,16.21,0,0,0,269,1106.37h0a16.21,16.21,0,0,0-16.21,16.21v219.67A16.21,16.21,0,0,0,269,1358.46Z" transform="translate(0 609.64)"/><path class="cls-17" d="M206,1359.39h0a16.21,16.21,0,0,0,16.22-16.21V1123.52A16.22,16.22,0,0,0,206,1107.31h0a16.21,16.21,0,0,0-16.21,16.21v219.66A16.21,16.21,0,0,0,206,1359.39Z" transform="translate(0 609.64)"/><path class="cls-20" d="M475.71,1210.07H59.54a2,2,0,1,1,0-4H475.71a2,2,0,1,1,0,4Z" transform="translate(0 609.64)"/><path class="cls-20" d="M432.41,1268.26H111.58a1,1,0,1,1,0-2H432.41a1,1,0,1,1,0,2Z" transform="translate(0 609.64)"/><path class="cls-20" d="M433.41,1377.55h-330V1208.07a1,1,0,0,1,2,0v167.48h326V1208.07a1,1,0,0,1,2,0Z" transform="translate(0 609.64)"/><polygon class="cls-21" points="449.96 1578.33 419.86 1556.17 111.58 1556.17 90.71 1578.33 449.96 1578.33"/><polygon class="cls-22" points="449.96 1578.33 449.96 2001.35 90.71 2001.35 312.65 1578.33 449.96 1578.33"/><polygon class="cls-22" points="222.2 1578.33 90.71 1832.07 90.71 1578.33 222.2 1578.33"/><polygon class="cls-22" points="396.87 1578.33 156.46 2015.47 252.75 2015.35 449.96 1649.98 449.96 1578.33 396.87 1578.33"/><rect class="cls-7" x="285.6" y="2069.54" width="91.95" height="140.11"/><rect class="cls-7" x="1290.55" y="2069.54" width="91.95" height="140.11"/><rect class="cls-7" x="65.61" y="2067.13" width="91.95" height="142.51"/><rect class="cls-7" x="1489" y="2069.54" width="91.95" height="140.11"/><rect class="cls-7" y="1376.55" width="1689.02" height="58.32" transform="translate(1689.02 3421.06) rotate(180)"/><rect class="cls-5" y="1405.83" width="1700" height="86.64" transform="translate(1700 3507.94) rotate(180)"/><path class="cls-23" d="M1068.84,1264l2.22,94.37s62.94-21.08,74.21-22.34l87.52-9.81s16-84.64,8.27-92.22-57.54-21.85-68.08-19.15-40,31.68-44.69,35.32S1068.84,1264,1068.84,1264Z" transform="translate(0 609.64)"/><path class="cls-24" d="M1844.91,1112.35s153.46,198.14,181.83,249.56-15,93.36-47.2,88.24-65.26-7.28-121.51-83.78-168.67-190.79-168.67-190.79Z" transform="translate(0 609.64)"/><path class="cls-25" d="M1362.82,599s-32.86,13.09-13.55,58,8.21,95.74,25.57,128.06l89.68-95.3-18-99.87Z" transform="translate(0 609.64)"/><path class="cls-25" d="M1552.4,735c8.42-23.35-44.71-103.17,1.78-128.66s63.21-11.15,63.21-11.15,38.78,22.43,44.81,76.51c3.49,31.31-11.81,96.79-47.21,136.24,0,0,14.25,7.4,11.31,21.58,0,0-7.66-12.74-14.65-13.36,0,0-4.6,31.65,14.65,37.6,0,0-15.13,17.38-42,8.18C1566.46,855.77,1520.88,822.29,1552.4,735Z" transform="translate(0 609.64)"/><path class="cls-26" d="M1592.51,792s10.73,137.73,13.87,141.07,79.52,24,82.31,36.25-61.33,145-176.19,146.64S1390,973.2,1390,973.2L1459,948.66l10-133.82S1522.53,780.27,1592.51,792Z" transform="translate(0 609.64)"/><path class="cls-27" d="M1606.38,933.05c-.92-1-2.48-13.4-4.24-30.51,0,.15,5.08,83.22-47.27,108.48s-95.9-22.59-95.9-22.59,11.89,100.88,102.29,70.67c60.85-20.33,92.18-72,106.17-103.65C1643.73,945.37,1608.49,935.3,1606.38,933.05Z" transform="translate(0 609.64)"/><path class="cls-26" d="M1261.65,1007.24s-46.17,30.1-61.13,79.61-15.31,83.7-31,107.23-28,50.89-35.49,96.81-1.66,42.79-11.26,58.1-17.78,30.53-36.06,101.59C1072.53,1505.5,1050,1600,1050,1600h94.5s67.64-142.93,87.47-191,30.13-72.7,37.22-95.87,38.54-54.53,62.12-107.47S1346.34,1002.23,1261.65,1007.24Z" transform="translate(0 609.64)"/><path class="cls-28" d="M1281.53,1020.87a78,78,0,0,0-2.16-12.25,63,63,0,0,0-17.72-1.38s-46.17,30.1-61.13,79.61-15.31,83.7-31,107.23-28,50.89-35.49,96.81c-4,24.26-4.2,34.83-5,41.66,1.17-8.87,6.51-46.14,17.27-77.29,12.31-35.62,52.76-63.76,60-130S1281.53,1020.87,1281.53,1020.87Z" transform="translate(0 609.64)"/><path class="cls-24" d="M1146.87,1238.83c-5.18,14.49-9.52,31.39-12.89,52.06-7.49,45.92-1.66,42.79-11.26,58.1-6.45,10.29-12.27,20.55-20.94,47.76,0,0,12.59-26.7,20.83-36.39s14.68-18.1,14-25.85,1.85-42.11,15-51c17.25-11.64,15-29.71,22.42-37.79s28.75-16.34,28.75-16.34l-53.81,6.86Z" transform="translate(0 609.64)"/><path class="cls-24" d="M1208.51,1208.24c.94-.76,4.69-2.64,6.52-6.35s4,2.85,2.2,6.13S1203.44,1212.34,1208.51,1208.24Z" transform="translate(0 609.64)"/><polygon class="cls-28" points="1128.77 1944.16 1128.77 1944.16 1128.77 1944.16 1128.77 1944.16"/><path class="cls-24" d="M1275.61,1203.35c-12.33,18.5-19.11,31.44-8.63,46.24s-17.88,30.2-13,55.48-35.14,82-54.25,130.69S1149.06,1543.57,1127,1600h17.58s67.64-142.93,87.47-191,30.13-72.7,37.22-95.87,38.54-54.53,62.12-107.47c14.17-31.83,16.72-98.9-1.9-146.25-26.06,18.33-48.43,34.44-48.43,34.44S1287.94,1184.86,1275.61,1203.35Z" transform="translate(0 609.64)"/><path class="cls-27" d="M1594.34,814.88h0c-1.11-13.69-1.83-22.9-1.83-22.9-70-11.71-123.51,22.86-123.51,22.86l-10,133.82C1593.34,938.63,1594.34,814.88,1594.34,814.88Z" transform="translate(0 609.64)"/><path class="cls-26" d="M1396.11,596.59c-13.54,17.88-26.61,35.9-27.44,91.45-.93,61.73,4.2,215.49,98.88,218.58S1586.91,831,1592.78,781.34s-1.48-135.46-50.15-183.79C1501.81,557,1419.42,565.82,1396.11,596.59Z" transform="translate(0 609.64)"/><path class="cls-24" d="M1435.31,684.61c-4-4.25,11,31.83,7.7,50-4.22,23.32-20.32,47.73-14.87,65.63s41.45,11.19,47.11,9.54,7.69-11.35-7.82-10.53-19.68,1.64-22.58-9.53S1476.24,728,1435.31,684.61Z" transform="translate(0 609.64)"/><path class="cls-27" d="M1399.11,615.41s39.64-15.36,57.8.93,42.63,51.35,82.8,36.69c0,0,8.67,51.7,40.74,50.89,0,0,30.59-40.18-8.42-89.44S1425.13,548.39,1399.11,615.41Z" transform="translate(0 609.64)"/><path class="cls-25" d="M1548.94,644.73s2.47,42.79,31.51,59.19c0,0-7.42,42.57,4.06,65.88l14-51.32s17.08-43,.17-75.85C1598.72,642.63,1572,619.71,1548.94,644.73Z" transform="translate(0 609.64)"/><path class="cls-26" d="M1585.65,743.75s4.11-22,20.1-36.71,29.82,11.77,30.92,32.68S1622.08,794.58,1600,796,1585.65,743.75,1585.65,743.75Z" transform="translate(0 609.64)"/><path class="cls-24" d="M1627.87,732.07c-3.25-8.63-9.75-17.16-16.68-15.76s-18.8,20.3-20.06,35.43,7.87,32.82,15.09,31.46,13.83-12.17,4.87-17,9-6.53,2.37-11.87S1633.08,745.91,1627.87,732.07Z" transform="translate(0 609.64)"/><path class="cls-29" d="M1608.55,757.7c1.14-2.26-3.34-1.56-4.7-9.64s6.16-25.26,10.78-24.44,11.82,13.8,11.67,16.52c0,.37-.08.88-.16,1.44-5.36,6.26-17.42,8.91-12.68,12.72,6.64,5.34-11.32,7-2.37,11.87,3.26,1.77,4.44,4.32,4.3,6.92-2.23-.06-4.85-1.73-7.34-3.73C1603.25,765.52,1607.42,760,1608.55,757.7Z" transform="translate(0 609.64)"/><path class="cls-9" d="M1458.33,772.62c45.51-8.63,101.3,8.18,90.63,63.37s-58.87,70.15-67.74,71.38c-8.73,2.1-58.84,5.79-87-42S1412.81,781.25,1458.33,772.62Z" transform="translate(0 609.64)"/><path class="cls-30" d="M1465.55,881.46c-28.9,5.94-64.53-4.22-58.17-39.47s36.93-45.24,42.56-46.12c5.54-1.42,37.4-4.26,55.7,25.93S1494.45,875.52,1465.55,881.46Z" transform="translate(0 609.64)"/><path class="cls-31" d="M1528.5,796.26a4.75,4.75,0,0,1,3.37-5.66,4.49,4.49,0,0,1,5.11,3.91,4.75,4.75,0,0,1-3.37,5.66A4.5,4.5,0,0,1,1528.5,796.26Z" transform="translate(0 609.64)"/><path class="cls-31" d="M1536.87,848.25a4,4,0,0,1,2.82-4.75,3.78,3.78,0,0,1,4.29,3.29,4,4,0,0,1-2.82,4.74A3.78,3.78,0,0,1,1536.87,848.25Z" transform="translate(0 609.64)"/><path class="cls-31" d="M1402.37,874.91c-.89-1.73-.53-3.73.78-4.48s3.1.05,4,1.77.53,3.73-.79,4.47S1403.25,876.63,1402.37,874.91Z" transform="translate(0 609.64)"/><ellipse class="cls-31" cx="1391.25" cy="832.06" rx="3.26" ry="3.67" transform="translate(-74.49 749.24) rotate(-5.59)"/><path class="cls-31" d="M1444.16,800.64c9.07-2.76,22.67,1.66,19.68-5.83s-18.06-4.3-22.1-3.07-19.29,8.82-17.07,15.6S1434.82,803.48,1444.16,800.64Z" transform="translate(0 609.64)"/><polygon class="cls-31" points="1530.44 1402.16 1597.1 1326.75 1593.39 1332.8 1533.77 1408.5 1530.44 1402.16"/><path class="cls-31" d="M1540.27,844.66s42.56-8,50.92-52.14c0,0,4.77,40.54-50.92,57.92Z" transform="translate(0 609.64)"/><path class="cls-31" d="M1391.65,829.71s-5.5,2.72-7.24-3.12c0,0-1.47,8.24,6.77,8.24C1391.18,834.83,1393.5,833.64,1391.65,829.71Z" transform="translate(0 609.64)"/><path class="cls-31" d="M1403.05,871.7s-6.45,11.08,5.49,13.29l-3.58-3.62s-.68-1.56,1.11-5.67C1406.07,875.7,1404.86,871.64,1403.05,871.7Z" transform="translate(0 609.64)"/><path class="cls-32" d="M1613.38,936.05s10.63-8,18.44-6.34,29,16.55,44.61,23,82,29.92,97.57,48.32,152.78,182.89,155,201.29-126.57,133.26-132.7,133.26-42.94-54.09-42.94-54.09,11.71,144.42,15.06,165S1777.7,1600,1777.7,1600H1304.34s12.3-182.13,13.56-223.53-15.06-93-18.12-98.55-15.34-10.87-3.63-24.26c0,0-13.94-17,3.91-26.76,0,0-24-192.92-38.48-219.69,0,0-3.9-18.61,9.9-18.82,0,0-.63-6.9,6.69-4.6,0,0-4.18-15.89,3.76-21.95s15.27-.21,15.27-.21,0-13.17,10.87-14.22,16.1,7.14,20.28,5.35,8-13.5,21.54-7.65,22.37,15.47,34.29,12.75,30.53-11.5,39.31-10.87,10.87,5.86,15.68,3.14,7.81-9.23,15.75,0c0,0-9.87,71.18,59.81,84.15C1567.14,1044,1625.9,1023.52,1613.38,936.05Z" transform="translate(0 609.64)"/><path class="cls-33" d="M1929,1202.37c-.43-3.58-6-12.66-14.68-25.11-24.1,26.48-56.2,11.48-73.42.2-17.88-11.71-99.25-69-110.35-84.45s-41.92-55.18-50.55-67.2-21.92-60.08-21.92-60.08l-8,63.47L1723.78,1147s103.69,85.24,148.59,122.67C1902.59,1240.51,1930.05,1211,1929,1202.37Z" transform="translate(0 609.64)"/><path class="cls-33" d="M1514.73,1034.25c-69.68-13-59.81-84.15-59.81-84.15-7.94-9.2-10.94-2.69-15.75,0s-6.9-2.51-15.68-3.14-27.39,8.16-39.31,10.87-20.7-6.9-34.29-12.75-17.36,5.85-21.54,7.65-9.41-6.4-20.28-5.35-10.87,14.22-10.87,14.22-7.32-5.86-15.27.21-3.76,21.95-3.76,21.95c-7.32-2.3-6.69,4.6-6.69,4.6-13.8.21-9.9,18.82-9.9,18.82,14.5,26.77,38.48,219.69,38.48,219.69-17.85,9.76-3.91,26.76-3.91,26.76-11.71,13.39.56,18.68,3.63,24.26s19.37,57.15,18.12,98.55S1304.34,1600,1304.34,1600H1777.7s-5.93-132.78-9.27-153.41-15.06-165-15.06-165,36.8,54.09,42.94,54.09c1.76,0,13.72-9.55,29.8-23.57v-36.38s-61-30.41-82.6-64.31-162.75-112.2-197.27-91.24.61,47.44.61,47.44c-4.93,75.19,159.05,64.76,164,77.7s35.14,131.31,37,170.76-17.78,126.6-58.46,149.41-217.72,17.66-210.94-.22,193.57-7.4,197.89-33.29-106-16.65-220.51-74S1325.54,1281,1342.7,1293.36s95,80.75,98.74,55.44-123.91-103.53-127-113.39,51.79,25.27,57.34,22.19-41.92-26.51-50.55-36.41-8.63-52.36-18.5-70.24,53,89.39,55.68,67.2-67.39-156.58-64.31-168.3-9.86-56.1-3.08-74.59,19.73,107.27,29.59,103,.62-50.55-5.55-78.91-6.78-40.07,6.17-21.57S1357,1196,1365.61,1137,1338.49,990.06,1349,1000.8s36.37,105.15,37.63,63.94-29.62-90.1-14.38-81.1,38.39-23.79,42.71-10.23,9.86,18.49,25.88,2.47,7.41,83.84,64.74,88.86,101.72-13,113-60.51-5.22-68.18-5.22-68.18C1625.9,1023.52,1567.14,1044,1514.73,1034.25Z" transform="translate(0 609.64)"/><path class="cls-25" d="M1378.56,625.16s-38.13-26.61,1.32-80.69c18.91-25.92,67.38-54.83,90.17-56.23,32.38-2-9.06,19.32,10.08,28.59s59.78-19.92,110.33,14.69,71.76,11.25,75.76,19.71-21.51,103.08-117.28,93.5S1485.2,571,1378.56,625.16Z" transform="translate(0 609.64)"/><path class="cls-26" d="M2021.5,1440.72c19.49-21.14,23.74-52.87-5-96.58s-282.06-228.52-287.39-231.79-25.33-38.55-34.7-51.3-27.9-40.2-32-56.46-4.37-59.49-8.34-67.68S1624,953,1626.55,984.5s6.06,57.23.75,60.73-57.81,3.23-75.35,7.36-18,27.07-6.88,35.54c0,0-18.07.29-17.56,16.4s14.11,23.16,14.11,23.16-9.27,7.9-4.8,19.62,21.83,16.3,21.83,16.3-4.72,15,15.42,23.51,119.51,20.2,139,28.24,142.86,172.26,188.54,213S1992.77,1471.9,2021.5,1440.72Z" transform="translate(0 609.64)"/><path class="cls-28" d="M2016.51,1344.14c-16.58-25.24-108-97.51-183.41-154.72,0,0,134.72,112.46,157.54,133.95s39.34,49,44.61,62.06C2032.49,1373.07,2026.5,1359.33,2016.51,1344.14Z" transform="translate(0 609.64)"/><path class="cls-27" d="M1606.34,1098.71c-.15-1-32.21-6.78-46.23-8.94s-19.74-7.18-19.74-7.18a17.73,17.73,0,0,0,4.7,5.54,24.69,24.69,0,0,0-8.54,2C1546.58,1087.52,1606.5,1099.71,1606.34,1098.71Z" transform="translate(0 609.64)"/><path class="cls-27" d="M1608.09,1136.77c0-1.85-25.38-4.52-44-6.67s-25.91-4.77-26-4.79a23.89,23.89,0,0,0,3.49,2.38,19.34,19.34,0,0,0-5.23,8.23C1540.21,1124.7,1608.09,1138.62,1608.09,1136.77Z" transform="translate(0 609.64)"/><path class="cls-27" d="M1609.83,1171.19c-.3-1.74-51.18-7.58-51.18-7.58a14.4,14.4,0,0,0-.48,4.16C1570.63,1169,1610.09,1172.66,1609.83,1171.19Z" transform="translate(0 609.64)"/><path class="cls-27" d="M1945.4,1413.57c-68.12-23.12-180-153.5-190.49-168.3s-16.34-41.92-19.42-46.3-10.17,3.46-20.65,7.77-85.68-7.77-85.68-7.77h0c34.11,5.8,72.55,11.71,83.88,16.39,19.46,8,142.86,172.26,188.54,213s91.19,43.55,119.92,12.37a56.74,56.74,0,0,0,15.54-37C2035.84,1405.37,2011.77,1436.09,1945.4,1413.57Z" transform="translate(0 609.64)"/><path class="cls-34" d="M1548.94,644.73c49.41,4.94,80.12-17.85,97.72-42.24-42.87,40-85.76,9-122.75-19.39s-50.55-7.4-64.11-7,11.09-26.71-19.73-16.85-61.51,65.9-61.51,65.9C1485.2,571,1453.17,635.14,1548.94,644.73Z" transform="translate(0 609.64)"/><path class="cls-25" d="M1468.62,696.15c-6.71-9,14.56-21.68,39.79-21.72,20.71,0,35.44,12.68,33.28,17.82s-18.59-8.51-36.59-4.49C1488.36,691.5,1473.09,702.19,1468.62,696.15Z" transform="translate(0 609.64)"/><ellipse class="cls-25" cx="1512.67" cy="738.48" rx="18.38" ry="15.97" transform="translate(673.74 2807.48) rotate(-86.13)"/><ellipse class="cls-9" cx="1518.11" cy="734.36" rx="6.65" ry="5.78" transform="translate(682.91 2809.06) rotate(-86.13)"/><path class="cls-25" d="M1508.58,713.08c-12.32-.92-19.12,12-23.76,6.75-3-3.47,4.92-12.18,22.61-13,7.09-.31,27.7,8.4,27.19,16.88S1520.34,714,1508.58,713.08Z" transform="translate(0 609.64)"/><path class="cls-25" d="M1425.49,708.56c5.89-9.38-10-19.8-29.86-17.62-16.3,1.78-28.74,15.43-27.39,20.24s15.2-9.91,29.1-7.58C1410.26,705.76,1421.56,714.81,1425.49,708.56Z" transform="translate(0 609.64)"/><ellipse class="cls-25" cx="1401.51" cy="756.74" rx="13.35" ry="18.3" transform="translate(-39.85 688.62) rotate(-3.18)"/><path class="cls-9" d="M1409.83,748.14a5.24,5.24,0,0,0-6-4.42,5.48,5.48,0,0,0-4.07,6.46,5.24,5.24,0,0,0,6,4.43A5.5,5.5,0,0,0,1409.83,748.14Z" transform="translate(0 609.64)"/><path class="cls-25" d="M1395.75,733.12c9.79-3.79,17.82,7.19,20.54,1,1.79-4.09-6.36-10.69-20.82-7.29-5.8,1.36-20.76,14.68-18.69,22.81S1386.42,736.74,1395.75,733.12Z" transform="translate(0 609.64)"/><polygon class="cls-24" points="974.51 1894.19 1074.8 1881.49 1074.8 1946.75 965.65 1981.74 974.51 1894.19"/><path class="cls-23" d="M1043.27,1210.75s34.25-6,42.35-17.15a46.84,46.84,0,0,0,7.86-20.46c.79-6,5.15-17.36,12.85-17,0,0-2.65,36.81-8.57,43.73s-45.61,24.41-45.61,24.41Z" transform="translate(0 609.64)"/><path class="cls-35" d="M745.69,1009.17s51.9,68.57,69,106.07S895,1282.66,899.89,1289s100.61-15.74,105.37-15.74,13.26,118,9.33,122.55-149.7,21.4-170.09,12.87-95.65-163.24-108.93-225.4S691.93,1039.53,745.69,1009.17Z" transform="translate(0 609.64)"/><polygon class="cls-36" points="1210.12 1816.04 1215.41 1816.32 1190.74 1808.28 1190.32 1809.58 1210.12 1816.04"/><rect class="cls-36" x="1187.39" y="1196.73" width="4.55" height="4.55" transform="translate(2698.36 1049.22) rotate(108.06)"/><polygon class="cls-37" points="1184.5 1810.64 1188.58 1811.97 1189.66 1808.65 1190.75 1805.32 1186.66 1803.99 1183.42 1796.69 1183.42 1796.69 1105.21 1771.19 1099.36 1789.12 1177.57 1814.62 1184.5 1810.64"/><polygon class="cls-36" points="1104.44 1790.78 1105.23 1788.35 1178.37 1812.19 1184.36 1809.46 1188.91 1810.95 1188.58 1811.97 1184.5 1810.64 1177.57 1814.62 1104.44 1790.78"/><polygon class="cls-38" points="1107.37 1781.82 1110.29 1772.85 1183.42 1796.69 1186.66 1803.99 1190.75 1805.32 1189.66 1808.65 1107.37 1781.82"/><rect class="cls-36" x="1175.9" y="1186.19" width="3.14" height="1.15" transform="translate(2670.74 1044.76) rotate(108.06)"/><rect class="cls-36" x="1169.45" y="1184.09" width="3.14" height="1.15" transform="translate(2660.31 1048.15) rotate(108.06)"/><rect class="cls-36" x="1161.98" y="1182.73" width="4.71" height="1.15" transform="translate(2650.27 1052.73) rotate(108.06)"/><rect class="cls-36" x="1156.57" y="1179.89" width="3.14" height="1.15" transform="translate(2639.43 1054.88) rotate(108.06)"/><rect class="cls-36" x="1150.13" y="1177.79" width="3.14" height="1.15" transform="translate(2629.01 1058.27) rotate(108.06)"/><rect class="cls-36" x="1142.66" y="1176.43" width="4.71" height="1.15" transform="translate(2618.96 1062.85) rotate(108.06)"/><rect class="cls-36" x="1137.25" y="1173.59" width="3.14" height="1.15" transform="translate(2608.13 1065) rotate(108.06)"/><rect class="cls-36" x="1130.81" y="1171.49" width="3.14" height="1.15" transform="translate(2597.7 1068.39) rotate(108.06)"/><rect class="cls-36" x="1123.33" y="1170.13" width="4.71" height="1.15" transform="translate(2587.66 1072.97) rotate(108.06)"/><rect class="cls-36" x="1117.93" y="1167.29" width="3.14" height="1.15" transform="translate(2576.83 1075.12) rotate(108.06)"/><rect class="cls-36" x="1111.48" y="1165.19" width="3.14" height="1.15" transform="translate(2566.4 1078.51) rotate(108.06)"/><path class="cls-37" d="M1077.9,1173.14l1.43-4.4,17.59,9.35,2.75-8.43,2.75-8.43-19.73-2.82,1.44-4.39a3.09,3.09,0,0,0-5.88-1.92l-3.12,9.56-3.12,9.56a3.1,3.1,0,0,0,5.89,1.92Z" transform="translate(0 609.64)"/><path class="cls-36" d="M1072,1171.22a3.1,3.1,0,0,0,2.15,4,3.22,3.22,0,0,0,3.79-2.2l1.38-4.23,17.59,9.35,2.75-8.43,2.75-8.43-6.08-.87h0l-2.51,7.7a3.63,3.63,0,0,1-5.29,2l-8.09-4.75h0a2,2,0,0,0-2.52,1.28l-.73,2.25a2.89,2.89,0,0,1-3.65,1.85l-1.23-.4Z" transform="translate(0 609.64)"/><path class="cls-37" d="M1102.59,1186.82l9.55-29.3a5.6,5.6,0,0,0-3.58-7h0a5.6,5.6,0,0,0-7,3.58l-9.55,29.31a5.57,5.57,0,0,0,3.58,7h0A5.58,5.58,0,0,0,1102.59,1186.82Z" transform="translate(0 609.64)"/><path class="cls-38" d="M1100.18,1182.47a2,2,0,0,0,2.51-1.44l7.71-23.63a2,2,0,1,0-3.71-1.21l-7.7,23.64a2,2,0,0,0,1.19,2.64Z" transform="translate(0 609.64)"/><rect class="cls-39" x="1127.22" y="1179.58" width="18.86" height="4.28" transform="translate(2612.48 1076.99) rotate(108.06)"/><polygon class="cls-40" points="1184.5 1810.64 1188.58 1811.97 1189.66 1808.65 1190.75 1805.32 1186.66 1803.99 1183.42 1796.69 1183.42 1796.69 1141.6 1783.06 1135.76 1800.99 1177.57 1814.62 1184.5 1810.64"/><path class="cls-9" d="M758,1006.63s16.32,13.45,31,74.06,21.72,156.93,26.59,217.53S829,1600,829,1600H713.66s35.88-443,39.13-502S758,1006.63,758,1006.63Z" transform="translate(0 609.64)"/><path class="cls-32" d="M559.07,776.41S468,828,453.6,949l14.68-18.06s-27.43,103.33,32.42,167.23c0,0,1.2,1.51,1.75,2.08s12.39,4.59,7.2-16.1-7.44-32.71-5.51-33.73,27.91,19.42,16.63,55.65-7.18,51.08,2.55,54.11,82.63-72.24,66.21-139.43c0,0,27.67-44.73-14.66-108.78-27.36-41.39,9.43-91.36,21.57-94.3S598,768.58,559.07,776.41Z" transform="translate(0 609.64)"/><path class="cls-33" d="M510.2,875.14c-2.94-.56-13.54,34.51-18,31.15s3.42-30.78,16.44-56.42,46.23-60.74,46.23-60.74l39.91,23.29-4.41,8.92c-14.86,12.7-39.1,54.84-15.46,90.6,25.12,38,25.59,69.22,21.81,88.32-2.88,2.59-6.72,4.06-11.73,4-42-.41-57.46-46.69-60.5-54.53s-6.55,40.28-17.72,8S513.14,875.69,510.2,875.14Z" transform="translate(0 609.64)"/><path class="cls-9" d="M570.75,768.93c-14.73-8-31.8,3.7-14.74,39.72,9.75,20.59,25,45.93,42.92,27.56S584.59,776.48,570.75,768.93Z" transform="translate(0 609.64)"/><path class="cls-26" d="M790.87,801.58s8.17-13.84,23.23-19.81,18.86,15.28,14.73,29.66-23.5,33.42-39.85,28.93S790.87,801.58,790.87,801.58Z" transform="translate(0 609.64)"/><path class="cls-24" d="M822.5,805c0-6.61-2.28-14.07-7.3-15.09s-17.73,8.15-22.36,17.8-2.89,23.9,2.32,25,12.35-4.16,7.53-9.89,7.69-1.79,4.56-7.18S822.55,815.63,822.5,805Z" transform="translate(0 609.64)"/><path class="cls-29" d="M803.09,816.54c1.33-1.18-1.86-2-.76-7.69s10.46-15,13.36-13.13,4.52,12.44,3.74,14.19c-.11.24-.28.56-.47.91-5.17,2.63-14,1-11.71,4.85,3.13,5.39-9.38,1.45-4.56,7.18,1.75,2.08,1.91,4.1,1.17,5.78-1.49-.66-2.84-2.5-4-4.52C797.57,820.22,801.76,817.71,803.09,816.54Z" transform="translate(0 609.64)"/><path class="cls-32" d="M814.94,791.93s4.27,23.24-13.58,31.76,9.45,22.95-10,41.85c0,0,6-9.22-2.37-16s-20.91-18.29-7.16-28.88,10-28,10-28S806.87,784.25,814.94,791.93Z" transform="translate(0 609.64)"/><path class="cls-32" d="M793.26,607.63s57.57,29.89,56,109.12C847.85,790,799.06,824.69,742.13,821c0,0-24.25,46.53-94.31,54.66,0,0-74.44-31.77-94.47-111.24s13.08-136.8,41.73-162.18c32.35-28.66,80.44-45.57,118.32-40.88S787.37,579.84,793.26,607.63Z" transform="translate(0 609.64)"/><path class="cls-33" d="M652.85,835.81c-36.48-16.81-35.1-72.38-52.3-82.94s-29.87,5.79-29.87,5.79c-19.91-51.76,0-126.91,0-126.91L564.89,642c-15.49,30.12-24.3,71.77-11.54,122.41,20,79.47,94.47,111.24,94.47,111.24,23.62-2.74,42-9.85,56.06-18.06C689.57,851.87,670.87,844.11,652.85,835.81Z" transform="translate(0 609.64)"/><path class="cls-26" d="M715.24,893.19s-13.76,34.9-8.5,82c0,0,31.55,19.89,30.42,35.72s-30,79.14-44.24,81.57-135.75-36.45-156-66.15,28.55-57.53,57.83-82.33S625.19,839,618,795.38C618,795.38,705.1,814.86,715.24,893.19Z" transform="translate(0 609.64)"/><path class="cls-41" d="M671,1010.07l6.9,21.92-8.77,10.15,23,37.33,5.66-46.67-8.5-19.48,17.47-38.15,40.72,28.41S765,1015.74,766,1034.42c4.24,82.39,47.32,111.27,52.93,157.52,5.77,47.62-33.17,95.33-33.17,95.33L789,1600H493.53l50.85-222.63-50.32-289.78s-8-58.85,38-98.21,67.33-50.14,67.33-50.14l39.13,71.65Z" transform="translate(0 609.64)"/><path class="cls-9" d="M709.67,994.38s50.69,26.78,60.16,71.7c0,0,3.25-7.65,0-25.33s-3.51-27.93-14.61-36.48-16.77-15.84-22.45-17.47-23.1-5.95-23.1-5.95A14.11,14.11,0,0,0,709.67,994.38Z" transform="translate(0 609.64)"/><path class="cls-23" d="M703.82,1280.52c-3.25-17.69-58.45-190.09-58.45-190.09l11.14,7.84-1.94-69,34.7,59s53.51,181.82,56.3,201.85-10.64,66.55-15.24,110.12,1.9,86,10,79.17,12.18-41.57,12.45-31.83-5.14,79.55,1.35,76.3,6.49-145.29,2.44-145.29-7.31,62.5-15.43,56,16.24-132.31,13.8-143.67-56.68-201.49-56.68-201.49l-5.56-14.88-.6,4.92-23-37.33,8-9.26-8.51-22.75-30.09.76-39.13-71.65s-18.88,9.53-59.37,43.4l11.89,114.28,31.76,245.13s-33.81,174.31-52.45,258H789l-.36-34.58c-36.07-8.18-81.79-20.16-91.34-30.18C681.09,1518.19,707.06,1298.22,703.82,1280.52Z" transform="translate(0 609.64)"/><polygon class="cls-26" points="797.21 1918.61 899.68 1872.28 927.23 1920.06 791.73 2008.14 797.21 1918.61"/><polygon class="cls-27" points="859.87 1890.28 797.21 1918.61 791.73 2008.14 878.63 1951.65 859.87 1890.28"/><path class="cls-27" d="M646.68,805.94l-17.61-1.06-8.44,12.33c.61,7.66,1,15.79,1,24.13h0s14.78,110.43,83.87,111h0c.23-35.08,9.69-59.12,9.69-59.12C709,844.57,673,818.63,646.68,805.94Z" transform="translate(0 609.64)"/><path class="cls-26" d="M623.16,784.65s-5.81-19.69-22.61-31.78S572.42,765.93,573.06,785s18.71,48.73,40.37,48.25S623.16,784.65,623.16,784.65Z" transform="translate(0 609.64)"/><path class="cls-24" d="M582.9,779.05c2.11-8.19,7.22-16.73,13.75-16.43s19.43,15.62,22.16,29-3.86,30.51-10.66,30.28-14-9-6.25-14.6-9-4.62-3.41-10.31S579.53,792.19,582.9,779.05Z" transform="translate(0 609.64)"/><path class="cls-29" d="M603.36,799.37c-1.27-1.86,2.92-1.85,3.34-9.28s-8.29-21.81-12.46-20.44-9.48,14-9.06,16.42c.06.34.17.78.3,1.28,5.6,4.87,17,5.58,13,9.66-5.57,5.69,11.16,4.72,3.41,10.31-2.82,2-3.65,4.49-3.25,6.8,2.05-.36,4.29-2.22,6.38-4.35C609.06,805.66,604.64,801.24,603.36,799.37Z" transform="translate(0 609.64)"/><path class="cls-26" d="M802.22,665.9s20.49,62.49,9.18,110.55S771,907.41,706.92,908.63c-52.29,1-90.54-70.93-97.43-125.44s6.82-137.74,31.77-150.51S757.91,603,802.22,665.9Z" transform="translate(0 609.64)"/><path class="cls-42" d="M717.75,739.6c3.79-5.81-14-13.18-33-12.6-15.59.48-24.9,8.77-22.56,11.93s12.8-5.76,26.91-3.69C702.25,737.17,715.23,743.47,717.75,739.6Z" transform="translate(0 609.64)"/><path class="cls-42" d="M708,761.3s-8-9.66-19.32-9.08S669,763.4,669,763.4l-4.7-6.63s-.35,9.43,3.17,11.84,10.63-13,25.38-10.28c10.25,1.89,9.24,10,14,10S710,763.23,708,761.3Z" transform="translate(0 609.64)"/><path class="cls-42" d="M770.15,746.74C769,741,783.33,739.6,796.53,745c10.83,4.42,15.27,13.6,12.82,15.57s-7.53-8-18-10C781.67,748.77,770.94,750.56,770.15,746.74Z" transform="translate(0 609.64)"/><path class="cls-42" d="M767.36,771.83s9.83-6.82,19-2.53,12.48,17.37,12.48,17.37l6.12-4.93s-2.89,9.32-6.62,10.52-4.38-16.19-17.48-18.37c-9.11-1.51-11,6.71-15,5.17S765.06,773.05,767.36,771.83Z" transform="translate(0 609.64)"/><path class="cls-27" d="M622.54,780.42c24.6,9.75,47.33,10.21,67.83,1.35,21.23-9.19,37.69-27.42,50.12-47.26-24.19,24.35-60.82,44.94-114,39l-10-46.48,136.12-98.37a110.61,110.61,0,0,1,17.77,8.24l23.06,18.25c2.18,2.33,4.25,4.86,6.26,7.49l4.46,41.57s-2.28,25-11.79,26.41-8.45-49.3-11.59-60.46c0,0-9.14,28.9-32.81,56.29-13.15,23.64-31.65,46.69-56.68,57.52a80.39,80.39,0,0,1-42.52,5.86,110.84,110.84,0,0,1-26.94-7.09Z" transform="translate(0 609.64)"/><path class="cls-24" d="M743.13,734.18c3-3.61-7,26-3.41,40.29,4.65,18.37,18.82,36.94,15.45,51.51s-32.43,11.19-37,10.18-6.75-8.62,5.66-8.82,15.78.24,17.48-8.83S712.87,771,743.13,734.18Z" transform="translate(0 609.64)"/><path class="cls-32" d="M779.23,656S718.11,780.61,608,764.26c0,0-21.71-10.85-30.09-33.66s-.47-87.94,32.93-109,115.36-42.34,171.52,9.09c0,0,16.55,9.52,31,41.17,10.5,23,22.54,89.67-3.74,112,0,0,4.74-57.32-5.39-79.72,0,0-3.18,17.2-6.62,17.06C784.4,720.69,798.1,680.4,779.23,656Z" transform="translate(0 609.64)"/><path class="cls-43" d="M774.73,593.47c-11.52-9.59-39.2-26.16-87.5-23.33s-76.12,26.44-71,32,63.34-36.44,103.65-15.89c12.15,6.2-39.44,10-39.82,23.49s35.11-7,49.56,5.54c11.17,9.68-67.17,42.33-61.42,58.1s61.38-23.84,70.59-35.74,29.77,30-51.63,68c-44.49,20.77-25.75,21.52-12.28,19.7,30.58-4.13,55.41-23,83.39-55.57C784.8,638.92,798.82,613.52,774.73,593.47Z" transform="translate(0 609.64)"/><path class="cls-43" d="M783.44,613.08s34.76,14.5,43.19,49.49c5.3,22-12.71-17.91-22.92-15.62s22.32,21.69,12.48,43.11-4.55-25-38.53-44.21C777.66,645.85,767.1,618.54,783.44,613.08Z" transform="translate(0 609.64)"/><path class="cls-32" d="M630.19,760.44s8.77,22.17-4.08,39.24c-10,13.24,5.7,33.28,5.7,33.28S610,822.91,611.18,802.64c.76-12.47,16-17.62-3.22-38.38C608,764.26,621.43,759.59,630.19,760.44Z" transform="translate(0 609.64)"/><path class="cls-9" d="M720.87,795.93c-36.87-5.75-82,10.26-73.24,56.37s47.82,57.1,55,57.84c7.07,1.48,47.65,2.92,70.35-38.29S757.74,801.68,720.87,795.93Z" transform="translate(0 609.64)"/><path class="cls-30" d="M714.54,883.43C739,887.64,769,878,763.37,848.27S731.87,811,727.1,810.39c-4.69-1-31.61-2.54-46.85,23.59S690.09,879.23,714.54,883.43Z" transform="translate(0 609.64)"/><path class="cls-31" d="M731.57,815.16c-6.89-1.18-17,5.69-15-2.41s13.5-7.55,16.57-7,14.73,5.51,13.21,12.77S738.67,816.38,731.57,815.16Z" transform="translate(0 609.64)"/><path class="cls-31" d="M660.35,815.68S626.11,798.89,608,764.26c0,0,10.62,36.92,52,54.64Z" transform="translate(0 609.64)"/><path class="cls-31" d="M656.71,857a78.56,78.56,0,0,1-35.06-27.54s7.71,21.75,34.63,31Z" transform="translate(0 609.64)"/><path class="cls-31" d="M771.08,831.53l.39,5s34.07-15.43,38.1-52.59C809.57,783.89,798.48,817,771.08,831.53Z" transform="translate(0 609.64)"/><path class="cls-31" d="M770.43,861.43l-.72,5.74s20.54-6.2,22.06-31.36C791.77,835.81,785.08,852.86,770.43,861.43Z" transform="translate(0 609.64)"/><path class="cls-32" d="M652.39,780.69a80.35,80.35,0,0,0,42.51-5.85c61.74-26.72,83.7-127.73,83.91-128.75l-2.31-.48c-.21,1-21.93,100.83-82.54,127.06-27,11.69-57.91,7.17-91.85-13.45l-.61,1C619.52,771.18,636.11,778.68,652.39,780.69Z" transform="translate(0 609.64)"/><path class="cls-44" d="M614.29,908.17S598,960.56,671,1010.07l-21.49,2.84-14.88,45.87S546.63,971.69,614.29,908.17Z" transform="translate(0 609.64)"/><path class="cls-44" d="M705.61,958.93s-3.15,28.62-16.34,54.39l14.21-9.54,23.74,38S741.64,991.2,705.61,958.93Z" transform="translate(0 609.64)"/><path class="cls-9" d="M591.53,943.9s-6.2,7-2.81,45.07c3.84,43.15,34.52,78.55,41.14,103.6s15,73.76,30.92,157.36c0,0,18.47,112,20.9,133.93S645,1600,645,1600H430.68l62.85-131.72s-9.9-13,12.29-33.55c0,0-8.93-17.86,18.94-32.2l7-24.35s-67.71-187.34-73.19-253.25S486.8,977.15,591.53,943.9Z" transform="translate(0 609.64)"/><path class="cls-35" d="M681.68,1383.86c-2.43-21.92-20.9-133.93-20.9-133.93-1.73-9.11-3.37-17.78-4.93-26.08-7.5-20.46-14.42-38.55-18-45.89-10.29-21.1-49.14-92.49-49.14-92.49l-22.29,37.29,87.66,198.06,13,154.76,2.39-4.95C676.88,1428.83,682.62,1392.28,681.68,1383.86Z" transform="translate(0 609.64)"/><path class="cls-35" d="M544.24,1438.65c-2.43-4.06-43.83,27.19-43.83,27.19s-2.44-3.65,1.62-12.58,52-34.09,54.79-39.37S513,1432.16,513,1432.16c-3.25-15,17-23.14,17-23.14s15-19.88,21.89-23.94,12.6,12.17,39.39,54.38,52.46,37.34,52.46,37.34l-35.42-73.87s33.28-49.91,28.41-81.17-64.59-256.42-64.59-256.42c-54.93-45.41-89.1-24.41-108.64,3.32a167.75,167.75,0,0,0-4.93,56.27c5.48,65.91,73.19,253.25,73.19,253.25l-7,24.35c-27.87,14.34-18.94,32.2-18.94,32.2-22.19,20.56-12.29,33.55-12.29,33.55L430.68,1600h43.8s19-94,22.68-100.07S546.68,1442.71,544.24,1438.65Z" transform="translate(0 609.64)"/><path class="cls-9" d="M502.82,1238.57s-63.65-109.77-35.51-165.5,83.4-44.46,124,16.14,75.48,248.11,82,258.94,163.42-69.81,167.21-69.81,41.93,125.27,41.39,133.93-185.06,62.13-185.06,62.13-55.27,18-76.92-14.43S502.82,1238.57,502.82,1238.57Z" transform="translate(0 609.64)"/><path class="cls-35" d="M745.57,1323c-36.11,16.44-69.38,30-72.29,25.18-4.95-8.25-26.38-119-54.25-198.12,0,.11,13.69,85.11,15.31,108.13s-4.87,59.14,2.43,63.6,4.69-49.51,7-45,14.5,72.64,17.35,85.63-12.59,53.17-9.34,60.07,14.49-62.51,19.22-63.32-3.39,45.86,2.29,46.27,4.06-43.83,13-49.11S745.57,1323,745.57,1323Z" transform="translate(0 609.64)"/><path class="cls-35" d="M578.81,1010.48c4.41,36.5,43.46,100.3,60.78,127.11-3.84-19.74-6.94-34.48-9.73-45-6.62-25-37.3-60.45-41.14-103.6-3.39-38.12,2.81-45.07,2.81-45.07S573.13,963.4,578.81,1010.48Z" transform="translate(0 609.64)"/><path class="cls-41" d="M882.19,1259.07l41.86,70.09s41.39-31.85,50.22-36.6,51.11-4.6,61.51-8.43,36.36-16.07,41.71-23.88,5.76-14.28,5.76-14.28,11.53-9.06,11.7-18.4l.16-9.34s15.78-9.74,18.22-16.51,11-42.06,9-42.5-9.89-1.71-16.14,10.81c-3.09,6.18-3.85,18-6.79,22.65s-34.27,15.17-40.44,16.42-35.61-.62-38.49-6.69,7.8-24.46,16.09-27,19.4-1.46,28.61-12.48,10.23-24.18-.31-18.12-26.58,9.15-34.63,11.1-13.67,4-18.71,10-26.36,18.71-29.16,21.39-15.3,27.32-19.07,32.58S882.19,1259.07,882.19,1259.07Z" transform="translate(0 609.64)"/><path class="cls-23" d="M1035.78,1284.13a207,207,0,0,0,21.61-9.85c-.26.1-19.6,7.54-29,8.58s-34.16,1.68-41.4.42-4.68-21.53-7.47-20.89-2.59,17.43-4.12,17.54.49-32.91-2.37-31-1.58,35.89-5.08,41.47-44,38.81-44,38.81,41.39-31.85,50.22-36.6S1025.38,1288,1035.78,1284.13Z" transform="translate(0 609.64)"/><path class="cls-23" d="M967.82,1225.74c4.87-5.24,11-28.37,13.8-33s16.23-16,16.23-16h0c-6.91,4.73-14,9.2-15.51,10.66-2.81,2.67-15.3,27.32-19.07,32.58-2.07,2.87-26.13,14.32-47.5,24.09C915.81,1244,963,1231,967.82,1225.74Z" transform="translate(0 609.64)"/><path class="cls-23" d="M1020.87,1202.25c-2.88-6.07,7.8-24.46,16.09-27s19.4-1.46,28.61-12.48a37.73,37.73,0,0,0,4.92-7.49,60.42,60.42,0,0,1-12.84,10.73c-8.32,5.32-27.42,5.1-31.48,9.46s-13.19,20.61-9.85,25.83,14.29,5.63,14.29,5.63h0C1025.67,1205.8,1021.82,1204.26,1020.87,1202.25Z" transform="translate(0 609.64)"/><path class="cls-23" d="M1117.11,1188.68s-4.78,11.64-8.21,15.7-43,33.28-43,33.28l29.47-19.75s15.78-9.74,18.22-16.5c.77-2.11,2.12-7,3.56-12.73Z" transform="translate(0 609.64)"/><path class="cls-23" d="M1095.12,1227.66c0-.66,0-1.26,0-1.82h0s-1,5.15-3,8.21-31.24,26.55-31.24,26.55l22.51-14.54S1095,1237,1095.12,1227.66Z" transform="translate(0 609.64)"/><path class="cls-41" d="M1156,1263.2c-9.34,20.45-37.37,33.38-37.37,33.38-43.53,14.51-47.59,61.81-47.59,61.81l-6.58-97.88s53.91-6.83,60.08-11.71c9.25-7.31,24.43-24.62,34.67-28s42.42-5.5,49-5.29-1.37,15.89-14.86,17.92c-12.19,1.84-23,4.11-26.06,6.48C1162.21,1243.82,1161,1252.25,1156,1263.2Z" transform="translate(0 609.64)"/><g class="cls-45"><path class="cls-46" d="M858.19,170.86a10.08,10.08,0,0,0-10.08-10.08H679.61c-9.46-.23-19,0-28.45,0H579.9a10.07,10.07,0,0,0-10.07,10.08V418.63A10.07,10.07,0,0,0,579.9,428.7H848.11a10.07,10.07,0,0,0,10.08-10.07v-73.3c0-11.26.63-22.63,0-33.89Z" transform="translate(0 609.64)"/><path class="cls-46" d="M246.15,307.51q-.1-.69-.24-1.35c0-.1,0-.19-.07-.28-.08-.38-.18-.76-.28-1.13l-.15-.5c-.09-.29-.18-.58-.28-.88s-.14-.35-.2-.53-.21-.54-.33-.81-.15-.36-.23-.54-.25-.52-.38-.78l-.26-.51-.45-.79L243,299c-.2-.32-.4-.63-.62-.93-.06-.09-.11-.18-.17-.26-.28-.38-.56-.76-.87-1.13-.08-.11-.18-.21-.26-.31-.22-.26-.45-.52-.68-.77l-.38-.38c-.21-.22-.42-.43-.64-.64l-.42-.39-.67-.57-.45-.37-.72-.54c-.15-.1-.3-.22-.46-.32s-.55-.36-.83-.53l-.4-.26c-.43-.25-.86-.48-1.3-.7a17,17,0,0,1-9.32-15.18V239.84c6.51-2.18,10.25-6.43,9.8-13.8a8,8,0,0,0-.85-3.46,4,4,0,0,0,.85-3.11c-.49-9.37-81.39-8.13-81.39,0a2.79,2.79,0,0,0,1,3.57,5.27,5.27,0,0,0-1,3c-1.49,6.56,2.67,10.94,10.79,13.8v37.09a14.65,14.65,0,0,1-8.3,13.21c-.45.22-.9.45-1.33.7l-.42.25c-.29.17-.57.34-.84.52s-.32.23-.48.34-.49.34-.72.52l-.49.39-.65.54-.47.43c-.2.19-.4.38-.59.58l-.45.46-.54.61-.42.49c-.17.21-.34.42-.5.64s-.26.34-.38.52-.31.45-.46.67l-.34.54c-.15.24-.28.47-.42.71l-.3.56-.38.76c-.08.18-.17.36-.26.55s-.23.55-.34.83-.14.34-.2.52c-.12.33-.23.68-.34,1l-.12.37c-.13.47-.25.94-.36,1.42,0,.13,0,.27-.07.4-.07.35-.14.7-.19,1,0,.19,0,.38-.07.57l-.09.76h0c0,.61-.08,1.22-.08,1.84V410.2l0,0q0,4.23,0,8.46a16.34,16.34,0,0,0,3.92,10.63A16.82,16.82,0,0,0,149,430.9l.16.15a16.67,16.67,0,0,0,4.05,2.57,16.33,16.33,0,0,0,1.56.62c23.11,7.81,59.28,7.93,80.7.39a16.48,16.48,0,0,0,10.94-15.58V310.77a23.24,23.24,0,0,0-.24-3.25Z" transform="translate(0 609.64)"/><path class="cls-46" d="M337.17,346a.3.3,0,0,0,0-.1c-.08-.53-.19-1.05-.32-1.56,0-.06,0-.13-.05-.2-.14-.51-.32-1-.51-1.51l-.11-.27a14.24,14.24,0,0,0-.68-1.42l-.13-.23a15.07,15.07,0,0,0-.87-1.37l0-.06a14.78,14.78,0,0,0-1-1.24l-.15-.17a14.93,14.93,0,0,0-1.14-1.11l-.23-.19a14.93,14.93,0,0,0-1.26-1l-.22-.14a13.23,13.23,0,0,0-1.46-.85h0a11.75,11.75,0,0,1-3.21-2.39,13.2,13.2,0,0,1-1-1.23c-.15-.21-.29-.43-.43-.66a11.56,11.56,0,0,1-1.72-6.09v-24.5c4.45-1.49,7-4.39,6.7-9.43a5.63,5.63,0,0,0-.59-2.36,2.75,2.75,0,0,0,.59-2.13c-.34-6.39-55.62-5.55-55.62,0a1.91,1.91,0,0,0,.67,2.45,3.63,3.63,0,0,0-.67,2c-1,4.49,1.82,7.48,7.37,9.43v25.35a10,10,0,0,1-5.67,9h0c-.31.15-.61.31-.91.47l-.29.18c-.19.11-.39.23-.58.36l-.32.22-.5.36-.32.26-.45.38-.32.29-.41.4-.3.31-.38.42-.27.33a5.37,5.37,0,0,0-.35.45l-.26.34c-.11.15-.21.31-.32.47s-.15.24-.23.36-.19.33-.29.5-.13.24-.2.36-.18.36-.26.54-.12.24-.17.36-.17.4-.25.6l-.12.32c-.09.25-.17.5-.25.75,0,.07-.05.14-.07.2-.09.32-.17.65-.24,1,0,.08,0,.16-.05.24,0,.25-.1.5-.13.75s0,.25-.05.38l-.06.53h0q-.06.63-.06,1.26v68.67l0,0c0,1.93,0,3.86,0,5.78a11.24,11.24,0,0,0,6.67,10.25c.35.15.7.3,1.06.42,15.8,5.33,40.52,5.42,55.15.27a11.27,11.27,0,0,0,7.48-10.65v-74a15,15,0,0,0-.17-2.23Z" transform="translate(0 609.64)"/><path class="cls-46" d="M1026,304h0c-.07-.46-.15-.91-.25-1.36l-.06-.27c-.09-.38-.18-.76-.28-1.13l-.15-.5c-.09-.29-.19-.59-.29-.88s-.13-.36-.2-.53-.21-.54-.32-.81l-.24-.54c-.12-.26-.24-.52-.37-.78l-.27-.51c-.14-.27-.29-.53-.45-.79l-.26-.45c-.2-.32-.41-.62-.62-.93-.06-.08-.11-.17-.17-.26-.28-.39-.57-.76-.87-1.13l-.27-.32c-.22-.26-.44-.51-.67-.76l-.38-.39-.64-.63-.43-.39q-.33-.3-.66-.57l-.46-.37-.71-.54-.46-.32c-.27-.19-.55-.36-.83-.53l-.41-.26c-.42-.25-.85-.48-1.29-.71a17,17,0,0,1-9.33-15.17V236.37c6.52-2.19,10.26-6.43,9.81-13.8a8.18,8.18,0,0,0-.85-3.46,4.08,4.08,0,0,0,.85-3.11c-.49-9.37-81.39-8.14-81.39,0a2.76,2.76,0,0,0,1,3.57,5.27,5.27,0,0,0-1,3c-1.5,6.56,2.67,10.94,10.78,13.8v37.08a14.65,14.65,0,0,1-8.3,13.22q-.67.33-1.32.69l-.42.26-.85.52-.47.34-.73.52-.48.39c-.22.18-.44.35-.65.54l-.47.43-.6.58-.44.46c-.18.2-.37.4-.55.61l-.41.49c-.17.21-.34.42-.5.64s-.26.34-.38.52-.31.45-.46.68-.23.35-.34.53-.29.48-.42.72-.21.36-.3.54-.26.52-.38.77-.18.36-.26.54-.23.57-.35.85-.13.33-.19.5c-.13.35-.24.7-.35,1,0,.12-.08.23-.11.34-.14.47-.26.95-.36,1.43,0,.13-.05.26-.07.39-.07.35-.14.7-.19,1.06,0,.19-.05.38-.07.57s-.07.5-.09.76h0c-.05.61-.09,1.22-.09,1.84V406.73l0,0c0,2.82,0,5.64,0,8.46a16.5,16.5,0,0,0,11.32,15.61c23.12,7.8,59.29,7.93,80.71.39a16.48,16.48,0,0,0,10.94-15.58V307.3A22,22,0,0,0,1026,304Z" transform="translate(0 609.64)"/></g><rect class="cls-9" x="549.17" y="769.95" width="289.13" height="268.64" rx="10.47"/><polygon class="cls-47" points="759.04 891.9 706.2 891.9 706.2 839.06 681.56 839.06 681.56 891.9 628.72 891.9 628.72 916.54 681.56 916.54 681.56 969.38 706.2 969.38 706.2 916.54 759.04 916.54 759.04 891.9"/><path class="cls-48" d="M131.74,419.09V312.45a21.21,21.21,0,0,1,12-19.15h0a14.33,14.33,0,0,0,8.13-12.94V244.05c-8-2.79-12-7.08-10.56-13.51,0-15.92,79.2-18.33,79.68,0,.43,7.22-3.23,11.37-9.6,13.51v35.09A16.63,16.63,0,0,0,220.55,294h0a21.8,21.8,0,0,1,12,19.49v106a16.14,16.14,0,0,1-10.71,15.25c-21,7.38-56.38,7.26-79-.38A16.15,16.15,0,0,1,131.74,419.09Z" transform="translate(0 609.64)"/><path class="cls-49" d="M151.9,230.86c-8-1.39-12-3.54-10.56-6.75,0-8,79.2-9.17,79.68,0,.43,3.61-3.23,5.69-9.6,6.75C195.1,233.28,164.14,232.79,151.9,230.86Z" transform="translate(0 609.64)"/><path class="cls-50" d="M213.09,223.84c0,2-14.18,3.54-31.68,3.54s-31.68-1.58-31.68-3.54,14.19-3.54,31.68-3.54S213.09,221.89,213.09,223.84Z" transform="translate(0 609.64)"/><path class="cls-51" d="M224.17,424.31c0,2.93-18.65,5.31-41.67,5.31s-41.66-2.38-41.66-5.31S159.49,419,182.5,419,224.17,421.38,224.17,424.31Z" transform="translate(0 609.64)"/><path class="cls-51" d="M141,322.7l-.2,101.61c6.58,7.36,81.93,5.31,83.33,0l.21-101.61Z" transform="translate(0 609.64)"/><ellipse class="cls-51" cx="182.71" cy="932.34" rx="41.67" ry="5.31"/><path class="cls-49" d="M131.74,419.09q0-4.14,0-8.28c5,4,11.88,4.55,18.27,4.5,12.26-.11,25.36-2.4,34.18-10.95,7.23-7,10.5-17.3,11.49-27.36s0-20.2,0-30.31c0-8.27.77-16.55.18-24.8s-2.65-16.63-7.61-23.23c-1.73-2.3-3.81-4.4-4.87-7.07a21.14,21.14,0,0,1-1-7.73l-.3-38.52a71.78,71.78,0,0,0,12.86-5.64,22.41,22.41,0,0,0,7.11-5.65,9.6,9.6,0,0,0,1.84-8.62c-1.57-4.68-7.1-6.46-11.88-7.59,7.23,1.71,28.75,1.15,29.06,12.7.43,7.22-3.23,11.37-9.6,13.51v35.09A16.63,16.63,0,0,0,220.55,294a21.8,21.8,0,0,1,12,19.49v106a16.14,16.14,0,0,1-10.71,15.25c-21,7.38-56.38,7.26-79-.38A16.14,16.14,0,0,1,131.74,419.09Z" transform="translate(0 609.64)"/><path class="cls-49" d="M131.81,310.64a21.22,21.22,0,0,1,12-17.34h0a14.33,14.33,0,0,0,8.13-12.94c4.48,11.3,52.8,11,59.52-1.22A16.63,16.63,0,0,0,220.55,294h0a21.76,21.76,0,0,1,11.75,16.3C226.06,324.39,140.84,324.15,131.81,310.64Z" transform="translate(0 609.64)"/><path class="cls-48" d="M252.69,422.33V349.46a14.5,14.5,0,0,1,8.22-13.09h0a9.79,9.79,0,0,0,5.56-8.84V302.72c-5.43-1.91-8.22-4.84-7.22-9.24,0-10.88,54.12-12.52,54.45,0,.3,4.94-2.2,7.78-6.56,9.24v24a11.37,11.37,0,0,0,6.24,10.15h0a14.9,14.9,0,0,1,8.19,13.32v72.44A11,11,0,0,1,314.25,433c-14.32,5.05-38.52,5-54-.26A11,11,0,0,1,252.69,422.33Z" transform="translate(0 609.64)"/><path class="cls-49" d="M266.47,293.71c-5.43-1-8.22-2.42-7.22-4.62,0-5.44,54.12-6.26,54.45,0,.3,2.46-2.2,3.89-6.56,4.62C296,295.35,274.83,295,266.47,293.71Z" transform="translate(0 609.64)"/><ellipse class="cls-50" cx="286.64" cy="898.55" rx="21.65" ry="2.42"/><path class="cls-52" d="M315.85,425.9c0,2-12.74,3.62-28.47,3.62s-28.47-1.62-28.47-3.62,12.75-3.63,28.47-3.63S315.85,423.89,315.85,425.9Z" transform="translate(0 609.64)"/><path class="cls-52" d="M259.05,356.46l-.14,69.44c4.5,5,56,3.62,56.94,0l.15-69.44Z" transform="translate(0 609.64)"/><path class="cls-52" d="M316,356.46c0,2-12.75,3.63-28.48,3.63s-28.47-1.63-28.47-3.63,12.75-3.63,28.47-3.63S316,354.46,316,356.46Z" transform="translate(0 609.64)"/><path class="cls-49" d="M252.69,422.33c0-1.89,0-3.77,0-5.66,3.44,2.71,8.12,3.11,12.49,3.08,8.38-.08,17.33-1.64,23.35-7.49,4.95-4.79,7.18-11.82,7.86-18.69s0-13.81,0-20.71c0-5.66.52-11.31.12-16.95s-1.81-11.37-5.2-15.88c-1.18-1.57-2.61-3-3.33-4.83a14.64,14.64,0,0,1-.7-5.28q-.09-13.16-.2-26.32a48.67,48.67,0,0,0,8.78-3.86,15.28,15.28,0,0,0,4.87-3.85A6.6,6.6,0,0,0,302,290c-1.07-3.19-4.85-4.41-8.12-5.18,5,1.17,19.65.78,19.86,8.67.3,4.94-2.2,7.78-6.56,9.24v24a11.37,11.37,0,0,0,6.24,10.15,14.9,14.9,0,0,1,8.19,13.32v72.44A11,11,0,0,1,314.25,433c-14.32,5.05-38.52,5-54-.26A11,11,0,0,1,252.69,422.33Z" transform="translate(0 609.64)"/><path class="cls-49" d="M252.74,348.22a14.51,14.51,0,0,1,8.17-11.85h0a9.79,9.79,0,0,0,5.56-8.84c3.06,7.72,36.08,7.5,40.67-.83a11.37,11.37,0,0,0,6.24,10.15h0a14.9,14.9,0,0,1,8,11.14C317.14,357.62,258.91,357.45,252.74,348.22Z" transform="translate(0 609.64)"/><path class="cls-48" d="M895.15,415.69V309.06a21.22,21.22,0,0,1,12-19.16h0A14.35,14.35,0,0,0,915.31,277V240.65c-7.95-2.79-12-7.08-10.56-13.51,0-15.92,79.2-18.33,79.68,0,.43,7.22-3.23,11.38-9.6,13.51v35.1A16.62,16.62,0,0,0,984,290.6h0a21.82,21.82,0,0,1,12,19.5v106a16.13,16.13,0,0,1-10.71,15.25c-21,7.38-56.38,7.26-79-.38A16.14,16.14,0,0,1,895.15,415.69Z" transform="translate(0 609.64)"/><path class="cls-49" d="M915.31,227.47c-7.95-1.4-12-3.54-10.56-6.76,0-8,79.2-9.17,79.68,0,.43,3.61-3.23,5.69-9.6,6.76C958.51,229.88,927.55,229.39,915.31,227.47Z" transform="translate(0 609.64)"/><path class="cls-50" d="M976.5,220.44c0,2-14.18,3.54-31.68,3.54s-31.68-1.58-31.68-3.54,14.18-3.53,31.68-3.53S976.5,218.49,976.5,220.44Z" transform="translate(0 609.64)"/><ellipse class="cls-53" cx="945.91" cy="1030.55" rx="41.67" ry="5.31"/><path class="cls-53" d="M904.45,319.3l-.2,101.61c6.58,7.37,81.93,5.31,83.33,0l.21-101.61Z" transform="translate(0 609.64)"/><ellipse class="cls-53" cx="946.12" cy="928.94" rx="41.67" ry="5.31"/><path class="cls-49" d="M895.15,415.69q0-4.14,0-8.28c5,4,11.88,4.55,18.27,4.5,12.26-.11,25.35-2.4,34.17-11,7.24-7,10.51-17.3,11.5-27.36s0-20.2,0-30.31c0-8.27.77-16.55.18-24.79s-2.65-16.64-7.61-23.24c-1.73-2.3-3.81-4.4-4.87-7.07a21.12,21.12,0,0,1-1-7.72l-.3-38.53a71.08,71.08,0,0,0,12.86-5.64,22.41,22.41,0,0,0,7.11-5.65c1.84-2.43,2.81-5.72,1.84-8.61-1.57-4.69-7.1-6.47-11.88-7.6,7.23,1.71,28.75,1.15,29.06,12.7.43,7.22-3.23,11.38-9.6,13.51v35.1A16.62,16.62,0,0,0,984,290.6a21.82,21.82,0,0,1,12,19.5v106a16.13,16.13,0,0,1-10.71,15.25c-21,7.38-56.38,7.26-79-.38A16.14,16.14,0,0,1,895.15,415.69Z" transform="translate(0 609.64)"/><path class="cls-48" d="M895.22,307.24a21.22,21.22,0,0,1,12-17.34h0A14.35,14.35,0,0,0,915.31,277c4.48,11.3,52.8,11,59.52-1.21A16.62,16.62,0,0,0,984,290.6h0a21.78,21.78,0,0,1,11.75,16.3C989.47,321,904.25,320.75,895.22,307.24Z" transform="translate(0 609.64)"/><rect class="cls-5" y="1038.59" width="1035.48" height="42.88"/><rect class="cls-5" y="686.76" width="1035.48" height="42.88"/><rect class="cls-13" x="1035.48" y="686.76" width="30.03" height="42.88"/><rect class="cls-13" x="1035.48" y="1038.59" width="30.03" height="42.88"/></g></g></svg>